<?xml version="1.0" encoding="UTF-8" standalone="no"?>
<!-- Created with Inkscape (http://www.inkscape.org/) -->

<svg
   version="1.1"
   id="svg1"
   width="828"
   height="823"
   viewBox="0 0 828 823"
   sodipodi:docname="inverted_vex.svg"
   inkscape:version="1.4.2 (ebf0e940, 2025-05-08)"
   xmlns:inkscape="http://www.inkscape.org/namespaces/inkscape"
   xmlns:sodipodi="http://sodipodi.sourceforge.net/DTD/sodipodi-0.dtd"
   xmlns="http://www.w3.org/2000/svg"
   xmlns:svg="http://www.w3.org/2000/svg">
  <defs
     id="defs1" />
  <sodipodi:namedview
     id="namedview1"
     pagecolor="#000000"
     bordercolor="#000000"
     borderopacity="0.25"
     inkscape:showpageshadow="2"
     inkscape:pageopacity="0.0"
     inkscape:pagecheckerboard="0"
     inkscape:deskcolor="#d1d1d1"
     inkscape:zoom="0.84667309"
     inkscape:cx="387.98918"
     inkscape:cy="416.92597"
     inkscape:window-width="1472"
     inkscape:window-height="891"
     inkscape:window-x="0"
     inkscape:window-y="65"
     inkscape:window-maximized="0"
     inkscape:current-layer="g9" />
  <g
     inkscape:groupmode="layer"
     inkscape:label="Image"
     id="g1">
    <g
       id="g9">
      <path
         style="fill:#fbfbfb"
         d="m 172.76571,542.27247 c -3.38945,-0.35519 -4.0627,-0.96301 -7.29047,-6.5819 -1.95589,-3.40481 -5.39758,-9.11557 -7.64819,-12.69057 -2.25062,-3.575 -5.31886,-8.525 -6.81833,-11 -1.49946,-2.475 -5.09991,-8.325 -8.00101,-13 -2.90109,-4.675 -6.1678,-10.075 -7.25937,-12 -1.09156,-1.925 -3.42768,-5.75 -5.19138,-8.5 C 121.67277,464.64758 119,460.30543 119,459.72469 c 0,-0.6136 -4.11897,-7.17895 -5.78739,-9.22469 -1.48643,-1.8226 -13.07907,-20.96932 -13.731674,-22.67962 -0.587187,-1.53886 1.146714,-1.68636 20.689084,-1.76009 l 21.32998,-0.0805 2.43602,3.76008 c 1.33981,2.06805 4.60231,7.24759 7.25,11.51009 2.64769,4.2625 7.12464,11.4625 9.94878,16 2.82414,4.5375 5.86164,9.47579 6.75,10.97397 0.88836,1.49819 5.47769,8.92319 10.19851,16.5 4.72082,7.57682 9.44994,15.3149 10.50916,17.19575 1.05923,1.88085 2.41168,3.58166 3.00547,3.77959 0.59378,0.19793 2.78389,-2.24094 4.8669,-5.41972 2.08301,-3.17877 4.61517,-6.69221 5.62703,-7.80764 1.01186,-1.11543 2.86763,-3.92042 4.12393,-6.2333 2.45656,-4.52257 21.35667,-32.64876 23.23342,-34.57479 0.62374,-0.64012 3.78052,-5.21386 7.01507,-10.16386 9.73192,-14.89326 6.5625,-13.5 30.71002,-13.5 19.8572,0 20.82569,0.0891 20.82569,1.91667 0,1.05416 -0.36789,2.06666 -0.81753,2.25 -1.05139,0.42868 -10.71192,14.72622 -44.14427,65.33333 -14.89711,22.55 -27.81301,42.0125 -28.702,43.25 -1.58223,2.20251 -1.99858,2.24645 -19.72627,2.0819 -9.96046,-0.0925 -19.79036,-0.3442 -21.84422,-0.55943 z m 90.9524,-2.0034 c 0.36849,-0.97299 1.25734,-2.36339 1.97523,-3.08979 0.71788,-0.72639 2.52786,-3.42639 4.02218,-6 1.49432,-2.5736 3.21149,-5.19077 3.81593,-5.81593 0.60444,-0.62515 5.10753,-7.37515 10.00687,-15 4.89933,-7.62484 9.41202,-14.38753 10.0282,-15.0282 0.61619,-0.64067 3.27293,-4.61856 5.90388,-8.83976 2.63096,-4.22119 9.82477,-15.172 15.98626,-24.33514 15.55263,-23.1293 16.71844,-24.87758 21.11215,-31.66025 2.13768,-3.3 4.49689,-6.63233 5.24269,-7.40518 0.7458,-0.77285 1.76831,-2.48964 2.27225,-3.8151 C 344.60206,417.91647 345,390.62202 345,356.4349 V 296 h 20.84154 20.84154 l 0.65846,19.66081 c 0.36215,10.81344 0.65846,23.18844 0.65846,27.5 0,4.31155 0.3527,7.83919 0.78379,7.83919 0.43108,0 7.17785,-9.5625 14.99282,-21.25 7.81497,-11.6875 15.89977,-23.725 17.96621,-26.75 L 425.5,297.5 447,297 c 11.825,-0.275 21.80735,-0.275 22.18301,0 0.66805,0.48905 -2.3189,5.17835 -13.69489,21.5 -5.44867,7.81744 -13.1962,19.46381 -36.25512,54.5 -11.76436,17.875 -22.26086,33.625 -23.32556,35 -1.06469,1.375 -2.48276,3.625 -3.15127,5 -0.6685,1.375 -1.44962,2.725 -1.73582,3 -3.26808,3.14025 -3.28612,3.45618 -3.63541,63.66176 -0.19028,32.79793 -0.6166,59.90386 -0.94739,60.23542 -0.33079,0.33155 -9.56456,0.75601 -20.51949,0.94325 L 346,541.18086 v -26.92377 c 0,-14.80806 -0.27857,-27.20233 -0.61905,-27.5428 -0.85054,-0.85055 -2.3351,0.84766 -6.36909,7.28571 -1.89543,3.025 -3.70076,5.725 -4.01186,6 -0.3111,0.275 -2.11882,2.975 -4.01715,6 -1.89834,3.025 -3.8178,5.95 -4.26546,6.5 -0.44765,0.55 -4.9547,7.3 -10.01566,15 l -9.20173,14 -22.22593,0.26907 c -20.90601,0.25309 -22.18615,0.16401 -21.55596,-1.5 z M 398.23157,517.75 398.5,494.5 l 15.97878,-0.27655 c 17.38029,-0.30082 21.05922,0.43119 22.60535,4.49782 1.09908,2.89081 1.22837,13.26548 0.16587,13.31053 -0.4125,0.0175 -1.61216,0.6842 -2.66592,1.48157 -1.86078,1.40804 -1.83919,1.52086 0.75,3.92044 2.56323,2.37553 2.66592,2.87697 2.66592,13.01844 V 541 H 433.5 429 V 530.5 520 H 418.5 408 v 10.5 10.5 h -5.01843 -5.01843 z m 30.57139,-10.36056 c 0.2823,-2.89851 0.0437,-3.15341 -3.5,-3.739 -2.09163,-0.34563 -6.84046,-0.63338 -10.55296,-0.63943 L 408,503 v 4.03498 4.03499 L 418.25,510.78498 428.5,510.5 Z m 16.65159,31.15601 C 443.02626,536.11717 443,535.89394 443,517.68182 v -18.40909 l 2.72191,-2.72191 2.72191,-2.72191 15.33655,0.33554 c 20.35603,0.44537 19.17895,-1.01864 19.16412,23.83555 -0.0146,24.56738 1.30742,23 -19.40024,23 -15.26696,0 -15.69296,-0.0578 -18.0897,-2.45455 z M 472.7753,518 472.5,503.5 465.01178,503.20138 C 452.22554,502.69149 453,501.72 453,518.26905 V 532.5 h 10.0253 10.0253 z M 487.23157,517.75 487.5,494.5 503,494.19581 c 18.11747,-0.35555 21.9175,0.41748 23.87067,4.85593 1.92959,4.38488 0.95209,11.99001 -1.77372,13.79988 -2.6856,1.78318 -2.638,2.46154 0.40305,5.74288 2.18594,2.35867 2.5,3.60303 2.5,9.9055 0,6.26505 -0.32079,7.55409 -2.45225,9.85398 L 523.0955,541 h -18.06618 -18.06618 z m 30.56615,8.33171 L 518.09543,520 h -10.45889 -10.4589 l -0.33882,6.00202 c -0.18635,3.30112 -0.003,6.11362 0.40833,6.25 0.41094,0.13639 5.13594,0.17225 10.5,0.0797 L 517.5,532.16342 Z M 518,507.62883 c 0,-3.28087 -0.13118,-3.38857 -4.89725,-4.02081 -2.69348,-0.35731 -7.41848,-0.35332 -10.5,0.009 C 497.04054,504.2706 497,504.29969 497,507.63768 V 511 h 10.5 10.5 z m 16.07258,30.73631 C 532.14773,535.91809 532,534.42917 532,517.47593 c 0,-23.85399 -0.69385,-22.83944 15.95613,-23.33101 6.67448,-0.19705 14.14276,-0.0573 16.59616,0.31065 6.86586,1.0296 7.44771,2.89365 7.44771,23.85991 0,16.10389 -0.15601,17.61314 -2.07258,20.04966 L 567.85484,541 H 552 536.14516 Z M 562,518.35699 C 562,502.09401 562.58995,503 552,503 c -10.58995,0 -10,-0.90599 -10,15.35699 V 532.5 h 10 10 z m 30.5,3.8933 V 503.5 l -7.80627,0.28629 -7.80628,0.28629 0.30628,-4.78629 L 577.5,494.5 h 19.5 19.5 l 0.30479,4.75 0.30479,4.75 H 609.55479 602 v 18.5 18.5 l -4.75,2.9e-4 -4.75,3e-4 z M 621.01531,518.75 c 0.008,-12.2375 0.34592,-22.70972 0.75,-23.2716 1.15569,-1.60701 7.38763,-1.8442 8.35499,-0.31799 0.46699,0.73677 0.85597,11.35209 0.86439,23.58959 L 631,541 h -5 -5 z m 16.43924,19.79545 c -2.39457,-2.39456 -2.45395,-2.82832 -2.4301,-17.75 0.0262,-16.42209 1.05643,-23.37411 3.76915,-25.43529 1.22595,-0.9315 6.14093,-1.30551 17.4564,-1.32836 L 672,494 v 4.5 4.5 l -12.25,0.0153 c -6.7375,0.008 -12.78915,0.35805 -13.44811,0.77695 -1.21974,0.77538 -2.1213,26.72167 -0.96856,27.87441 0.30264,0.30263 6.42645,0.4793 13.60846,0.39259 L 672,531.9016 V 536.4508 541 h -16.04545 c -15.70259,0 -16.09791,-0.0525 -18.5,-2.45455 z M 677,536.44989 v -4.55011 l 15.00166,0.30011 c 8.25092,0.16506 15.11342,-0.0314 15.25,-0.43665 0.13659,-0.40522 0.0942,-3.21772 -0.0942,-6.25 L 706.8149,520 h -12.83487 c -12.67464,0 -12.86074,-0.0329 -14.90745,-2.63486 -1.65967,-2.10993 -2.06986,-4.05236 -2.05893,-9.75 0.0192,-10.00935 0.55501,-11.40095 4.84881,-12.59361 2.00065,-0.55571 10.4519,-1.01289 18.78055,-1.01595 16.64866,-0.006 16.35699,-0.12049 16.35699,6.4129 v 3.25491 l -12.91529,-0.46636 C 687.50805,502.60845 686,502.96802 686,507.51905 V 511 h 13.5147 13.5147 l 1.86609,3.06855 c 1.43223,2.35512 1.90319,5.26256 2.0256,12.50516 0.1493,8.83316 -3e-5,9.59614 -2.33534,11.93145 C 712.11555,540.97536 711.9176,541 694.54545,541 H 677 Z M 407,418.54526 c 0,-0.26773 1.30199,-2.41244 2.89331,-4.76602 1.59132,-2.35358 7.69293,-11.59174 13.55912,-20.52924 L 434.11823,377 H 479.4626 525.5 V 364.5 H 509.91228 496.5 v -6.6566 -6.6566 l 7.70644,-0.69047 L 519,350.15293 525.5,350.5 v -11.60479 l -33.25,0.0774 c -18.2875,0.0426 -33.25,-0.288 -33.25,-0.288 l 26.5,-41.90941 h 40.39527 41.66405 v 61.20693 59.75164 l -23.01793,0.58972 C 516.37443,419.04513 407,419.22074 407,418.54526 Z M 244.91582,417.75 c -0.0463,-0.1375 -0.33035,-27.5875 -0.6312,-61 L 243.7376,296 H 285.3688 327 v 21.04015 21.04015 l -20.04479,-0.29015 c -22.62385,-0.32748 -21.47574,-0.75883 -20.7748,7.80517 L 286.5,349.5 301,350 l 14.5,0.5 0.29507,6.72301 0.29508,6.72301 -14.79508,0.27699 L 286.5,364.5 v 6 6 h 20.19274 20.19273 l -0.19273,20.74614 -0.19274,20.74613 -40.75,0.004 c -22.4125,0.002 -40.78788,-0.10864 -40.83418,-0.24614 z"
         id="path11"
         sodipodi:nodetypes="ssssssssssscsssssssssssssssssssssssssssssssscccssssscsssssssssscssssssscssccssssssccccccccccccssscccccssscccssssccssccccccssssssccccccccsssccsscscccssssssscccsssscccsccccccccccccccccccsssccccssssccccssscccssccssscsssssscsscccssssccsssccccccccccccsccccccsssscccccssccccccccccccccss" />
      <path
         style="fill:#8f8f8f"
         d="m 168,542.22357 c 0,-0.42703 1.8,-0.60476 4,-0.39496 2.2,0.2098 4,0.55919 4,0.77643 0,0.21723 -1.8,0.39496 -4,0.39496 -2.2,0 -4,-0.34939 -4,-0.77643 z M 213.64626,541.75 c 0.42037,-0.6875 1.12381,-1.7 1.56321,-2.25 0.4394,-0.55 12.97489,-19.45 27.85664,-42 33.15212,-50.23467 43.05539,-64.90074 44.11636,-65.33333 0.44964,-0.18334 0.81753,-1.19584 0.81753,-2.25 0,-1.7475 0.79764,-1.91667 9.03726,-1.91667 h 9.03726 l -3.88022,5.75 c -14.542,21.54942 -41.74797,62.95415 -42.00306,63.92438 -0.33809,1.28595 3.88219,8.2933 5.00677,8.31324 0.38391,0.007 13.88391,-19.77221 30,-43.95337 16.1161,-24.18116 29.76855,-43.98116 30.33879,-44 0.66654,-0.022 0.99187,-4.58748 0.911,-12.78425 -0.11683,-11.84054 -0.0992,-11.96948 0.24775,-1.80767 l 0.37355,10.94232 8.3761,-12.54126 c 4.60686,-6.8977 8.58003,-13.62174 8.82927,-14.94233 0.24924,-1.32058 0.51445,4.88215 0.58935,13.78384 0.13407,15.9344 -0.36921,19.6295 -3.05232,22.40992 -0.7458,0.77285 -3.10501,4.10518 -5.24269,7.40518 -4.39371,6.78267 -5.55952,8.53095 -21.11215,31.66025 -6.16149,9.16314 -13.3553,20.11395 -15.98626,24.33514 -2.63095,4.2212 -5.28769,8.19909 -5.90388,8.83976 -0.61618,0.64067 -5.12887,7.40336 -10.0282,15.0282 -4.89934,7.62485 -9.40243,14.37485 -10.00687,15 -0.60444,0.62516 -2.32161,3.24233 -3.81593,5.81593 -1.49432,2.57361 -3.41925,5.38159 -4.27762,6.23997 -0.85838,0.85837 -1.62882,2.46519 -1.7121,3.57071 C 263.58531,542.85503 262.87368,543 253.85867,543 h -9.71572 l -3.23989,-5 c -1.78194,-2.75 -3.5755,-5 -3.9857,-5 -0.4102,0 -2.13025,2.25 -3.82234,5 l -3.07653,5 h -8.56826 c -6.59557,0 -8.3923,-0.28779 -7.80397,-1.25 z m 94.02052,-0.94448 c 1.16585,-1.26804 4.21457,-5.56802 6.77492,-9.55552 2.56036,-3.9875 4.90259,-7.25 5.20495,-7.25 0.30236,0 -0.28194,1.28268 -1.29845,2.8504 -8.22536,12.68562 -10.02884,15.18383 -11.32467,15.68716 -0.90026,0.34967 -0.64922,-0.32628 0.64325,-1.73204 z m 37.11386,-26.64934 c -0.15435,-15.38181 0.0569,-27.75795 0.46936,-27.50254 0.4125,0.25542 0.75,12.62853 0.75,27.49581 v 27.03141 l 19.91806,-0.34043 c 10.95493,-0.18724 20.1887,-0.6117 20.51949,-0.94325 0.33079,-0.33156 0.75686,-27.39368 0.94683,-60.13806 0.30823,-53.12994 0.52131,-59.78639 1.98051,-61.86968 1.19289,-1.7031 1.63511,-1.90172 1.63511,-0.73439 0,0.88003 -0.675,2.16026 -1.5,2.84495 -1.13819,0.94462 -1.5,3.50679 -1.5,10.62244 V 440 h 22 22 v -10 -10 h -12.44098 c -6.84254,0 -12.70169,-0.42183 -13.02033,-0.9374 -0.55548,-0.89879 7.99336,-15.0626 9.09132,-15.0626 0.64449,0 -3.05506,6.28396 -6.28957,10.68328 -1.28724,1.7508 -2.34044,3.45905 -2.34044,3.7961 0,0.33706 17.12717,0.54425 38.06037,0.46043 20.93321,-0.0838 38.33321,0.12044 38.66667,0.4539 C 484.0605,419.72717 482.45833,420 480.16667,420 H 476 l -0.15231,30.75 c -0.0838,16.9125 -0.1968,31.425 -0.25116,32.25 -0.086,1.30472 -5.79242,1.53391 -43.83213,1.7605 l -43.73329,0.2605 -0.26555,28.2395 L 387.5,541.5 l -21.21936,0.31155 -21.21937,0.31156 z M 400.25,541.28375 c 1.5125,-0.22913 3.9875,-0.22913 5.5,0 1.5125,0.22912 0.275,0.41659 -2.75,0.41659 -3.025,0 -4.2625,-0.18747 -2.75,-0.41659 z m 27.96238,-10.48149 0.21238,-11.30226 0.32145,10.75 0.32145,10.75 h 4.42048 4.42048 l 0.36408,-6.25 0.36407,-6.25 -0.0684,6.5 -0.0684,6.5 -5.25,0.30226 -5.25,0.30226 z m 17.01013,9.64104 C 444.00013,539.58711 443,538.25756 443,537.48875 c 0,-0.91012 0.85642,-0.54142 2.45455,1.0567 2.39899,2.39899 2.81226,2.45455 18.25945,2.45455 14.9665,0 15.87439,-0.11126 17.11474,-2.09738 0.72041,-1.15356 1.5759,-1.83132 1.90108,-1.50613 0.32519,0.32519 -0.22573,1.49401 -1.22427,2.59738 -1.67436,1.85015 -3.06909,2.00613 -17.93803,2.00613 -12.97366,0 -16.55658,-0.30404 -18.34501,-1.5567 z m 60.08691,0.60005 c 18.5842,-0.53684 18.83281,-0.57328 20.76316,-3.04335 1.57407,-2.01417 1.82686,-2.11134 1.30084,-0.5 -1.37896,4.22414 -2.86432,4.50992 -22.31455,4.29335 L 486.5,541.58671 Z m 28.03906,-1.60396 c -1.40833,-1.40833 -2.29418,-2.82703 -1.96854,-3.15266 0.32563,-0.32563 1.53101,0.60164 2.67864,2.06061 L 536.14516,541 H 552 567.85484 l 2.07258,-2.63486 c 1.44152,-1.8326 2.07258,-2.15434 2.07258,-1.0567 0,0.86798 -1.00013,2.27867 -2.22251,3.13486 -1.78421,1.24971 -5.34291,1.5567 -18.04545,1.5567 -15.64435,0 -15.85185,-0.0289 -18.38356,-2.56061 z m 63.37964,1.82413 5.22813,-0.36652 0.29532,-18.6985 0.29531,-18.6985 0.22656,19.25 L 603,542 l -5.75,-0.18498 -5.75,-0.18498 z m 26.52188,0.0202 c 1.5125,-0.22913 3.9875,-0.22913 5.5,0 1.5125,0.22912 0.275,0.41659 -2.75,0.41659 -3.025,0 -4.2625,-0.18747 -2.75,-0.41659 z m 14.38486,-1.35633 C 636.18569,538.7875 635,537.38765 635,536.81664 c 0,-0.57102 0.85901,0.0241 1.90891,1.32258 1.83324,2.2672 2.57646,2.38248 18.75,2.90829 l 16.84109,0.5475 -16.11514,0.2025 c -14.95848,0.18796 -16.30426,0.0537 -18.75,-1.87009 z m 38.54539,-3.17742 0.18025,-5.25 0.37454,4.75 0.37454,4.75 h 17.49067 c 17.38689,0 17.5057,-0.015 20.02518,-2.53452 1.98517,-1.98517 2.46107,-2.15317 2.19568,-0.77511 -0.68361,3.54974 -4.60399,4.27955 -23.07111,4.29489 L 676,542 Z m -510.37603,1 c -3.78654,-5.97542 -5.96297,-10.09989 -4.61725,-8.75 1.65395,1.65908 7.14828,11 6.47019,11 -0.23493,0 -1.06875,-1.0125 -1.85294,-2.25 z M 592.22194,520.3075 592,504.115 l -4.25,-0.38279 -4.25,-0.3828 4.28138,-0.1747 c 2.71387,-0.11075 4.46291,0.29832 4.77717,1.11728 0.27268,0.71059 0.35843,8.24809 0.19055,16.75 L 592.44388,536.5 Z m -94.83545,11.92719 c -0.63228,-0.41718 -0.80905,-1.58695 -0.40902,-2.70674 0.62424,-1.74743 0.76375,-1.66201 1.22483,0.75 0.2862,1.49713 0.47026,2.71516 0.40903,2.70674 -0.0612,-0.008 -0.61241,-0.34592 -1.22484,-0.75 z m 19.60095,-6.03031 0.48744,-6.70438 0.31681,5.89575 c 0.17425,3.24266 -0.0451,6.25963 -0.48744,6.70438 -0.44234,0.44475 -0.5849,-2.20834 -0.31681,-5.89575 z m 128.08645,5.38465 c -0.90221,-1.08709 -0.87292,-1.58299 0.12755,-2.16033 0.71421,-0.41214 0.96496,-0.38111 0.55724,0.069 -0.40773,0.45007 -0.24013,1.42222 0.37244,2.16032 0.61257,0.73811 0.88877,1.34201 0.61377,1.34201 -0.275,0 -1.02695,-0.63494 -1.671,-1.41097 z M 156.7935,523.25 c -1.35976,-2.0625 -3.02476,-4.875 -3.70001,-6.25 l -1.22772,-2.5 2.01733,2.5 c 2.30986,2.86252 6.45942,10 5.81377,10 -0.2371,0 -1.54362,-1.6875 -2.90337,-3.75 z m 165.16226,-3.5 c 1.18369,-1.7875 2.65011,-4.2625 3.25872,-5.5 0.6086,-1.2375 1.51088,-2.25 2.00505,-2.25 1.03964,0 0.40878,1.25053 -2.86706,5.68328 -1.29386,1.7508 -2.35247,3.6633 -2.35247,4.25 0,0.5867 -0.49419,1.06672 -1.0982,1.06672 -0.60401,0 -0.12973,-1.4625 1.05396,-3.25 z M 525.25,518.39698 c -1.2375,-1.41179 -2.25,-2.96282 -2.25,-3.44675 0,-0.48392 1.0125,-1.37052 2.25,-1.97021 2.08802,-1.01186 2.11821,-0.98421 0.41927,0.38409 -1.76567,1.42204 -1.75678,1.54838 0.25,3.55516 C 527.06367,518.06367 528,519.45 528,520 c 0,1.41087 -0.22119,1.28194 -2.75,-1.60302 z m -90.17295,-1.10611 c -2.36219,-2.25934 -2.37477,-2.35269 -0.50157,-3.7224 1.05675,-0.77272 2.13405,-1.19227 2.39399,-0.93234 0.25993,0.25994 -0.17147,0.87068 -0.95867,1.35719 -1.20698,0.74596 -1.13811,1.20853 0.4395,2.95176 2.61575,2.89037 1.56405,3.1552 -1.37325,0.34579 z m 243.11151,0.67017 c -1.92183,-1.79045 -2.17999,-3.03968 -2.11827,-10.25 0.0386,-4.51607 0.40543,-9.06522 0.81506,-10.10921 0.40962,-1.04399 0.54615,2.25609 0.3034,7.33352 -0.39602,8.28309 -0.21981,9.53136 1.71488,12.14817 2.53444,3.42801 2.31354,3.6991 -0.71507,0.87752 z m 36.62541,-3.96246 c -1.26856,-2.21034 -1.33063,-2.75033 -0.26929,-2.34306 0.75855,0.29108 1.6624,1.42158 2.00856,2.51222 0.97988,3.08733 0.0794,2.99975 -1.73927,-0.16916 z M 149.77062,511.75 c -0.80267,-1.2375 -2.00425,-3.375 -2.67018,-4.75 -1.16588,-2.4073 -1.15028,-2.42584 0.42061,-0.5 1.87317,2.29643 4.73142,7.5 4.11964,7.5 -0.22587,0 -1.0674,-1.0125 -1.87007,-2.25 z m 180.06062,-3.80333 c 1.25218,-1.89567 2.77463,-4.45917 3.38324,-5.69667 0.6086,-1.2375 1.48016,-2.25 1.93679,-2.25 1.00868,0 -4.84448,9.69236 -6.4538,10.68698 -0.6286,0.38849 -0.11841,-0.84465 1.13377,-2.74031 z m 87.85796,2.32698 10.1892,-0.34227 0.40403,-2.71569 c 0.37154,-2.49732 0.39653,-2.47446 0.3108,0.28431 l -0.0932,3 -10.5,0.058 -10.5,0.058 z m 89,-0.0189 10.1892,-0.32341 0.40076,-3.21569 c 0.38933,-3.12392 0.40533,-3.10867 0.5608,0.53431 L 518,511 507.25,510.7891 496.5,510.57821 Z M 686.16004,507.25 c 0.15577,-3.65003 0.17073,-3.66414 0.56116,-0.52942 l 0.40113,3.22058 12.68883,0.31209 12.68884,0.31209 -13.25,0.21733 L 686,511 Z m -496.95655,-4.33579 c -0.93692,-1.69719 -5.84459,-9.68469 -10.90593,-17.75 C 173.23621,477.09889 168.46942,469.375 167.70469,468 c -0.76473,-1.375 -3.71113,-6.2125 -6.54756,-10.75 -2.83642,-4.5375 -7.32342,-11.7375 -9.97111,-16 -2.64769,-4.2625 -5.91019,-9.43193 -7.25,-11.48762 l -2.43602,-3.73762 -14,-0.0528 -14,-0.0528 -7.3225,-12.20957 C 102.15012,406.99431 94.612619,394.58994 89.427496,386.1443 84.242373,377.69867 80,370.60256 80,370.37517 c 0,-0.22739 9.993499,-0.29232 22.20778,-0.1443 l 22.20777,0.26913 9.33054,14.5 c 5.13179,7.975 9.61678,15.175 9.96663,16 0.34985,0.825 2.72912,4.65 5.28728,8.5 2.55816,3.85 4.95963,7.675 5.33661,8.5 0.37698,0.825 1.46796,2.69794 2.4244,4.16208 0.95645,1.46414 3.21121,5.06414 5.01058,8 1.79938,2.93586 6.39305,10.28792 10.20816,16.33792 3.81511,6.05 8.99852,14.375 11.51869,18.5 2.52017,4.125 7.03063,11.325 10.02324,16 2.99261,4.675 5.81131,9.32642 6.26378,10.33648 0.72197,1.6117 1.15266,1.36031 3.51861,-2.05375 1.48276,-2.13963 2.69593,-4.23978 2.69593,-4.66701 0,-0.42723 -1.49262,-3.10305 -3.31693,-5.94625 -1.82431,-2.84321 -6.0428,-9.44447 -9.37441,-14.66947 -3.33162,-5.225 -9.939,-15.47702 -14.68307,-22.78227 C 173.88151,433.91248 170,427.49998 170,426.96773 170,426.37289 178.6315,426 192.40046,426 h 22.40046 l 7.43429,11.96525 c 5.65906,9.10808 7.71254,11.687 8.59954,10.8 1.95107,-1.95107 1.29907,-0.22557 -0.85189,2.25451 -2.931,3.37947 -21.08377,30.27891 -23.76706,35.21889 -1.2563,2.31288 -3.11207,5.11787 -4.12393,6.2333 -1.01186,1.11543 -3.53518,4.61555 -5.60739,7.77805 -2.0722,3.1625 -4.17486,5.75 -4.67257,5.75 -0.49771,0 -1.6715,-1.38861 -2.60842,-3.08579 z M 437.92971,503.25 c -0.10406,-4.07182 -1.24068,-6.30545 -3.98081,-7.82293 -1.6358,-0.9059 -1.91931,-1.36796 -0.85389,-1.39163 2.52587,-0.0561 5.02662,3.45248 5.62141,7.88694 0.3008,2.24269 0.26267,4.07762 -0.0848,4.07762 -0.34742,0 -0.6633,-1.2375 -0.70196,-2.75 z M 411.75,503.2678 c 2.3375,-0.21053 6.1625,-0.21053 8.5,0 2.3375,0.21054 0.425,0.3828 -4.25,0.3828 -4.675,0 -6.5875,-0.17226 -4.25,-0.3828 z m 47.53017,-0.004 c 2.6291,-0.20668 6.6791,-0.20418 9,0.006 2.32091,0.20972 0.16983,0.37882 -4.78017,0.37577 -4.95,-0.003 -6.84892,-0.17464 -4.21983,-0.38131 z m 46.46983,0.0305 c 1.2375,-0.23836 3.2625,-0.23836 4.5,0 1.2375,0.23835 0.225,0.43337 -2.25,0.43337 -2.475,0 -3.4875,-0.19502 -2.25,-0.43337 z m 42,-0.0265 c 2.3375,-0.21053 6.1625,-0.21053 8.5,0 2.3375,0.21054 0.425,0.3828 -4.25,0.3828 -4.675,0 -6.5875,-0.17226 -4.25,-0.3828 z m 87.26531,-1.85112 c 0.008,-1.60417 0.47512,-3.59167 1.0371,-4.41667 0.73213,-1.07477 0.83192,-0.36606 0.35203,2.5 -0.83062,4.96072 -1.4093,5.75916 -1.38913,1.91667 z m 18.27628,1.84083 c 3.73537,-0.19293 9.58537,-0.19149 13,0.003 3.41462,0.19468 0.35841,0.35253 -6.79159,0.35078 -7.15,-0.002 -9.94379,-0.16103 -6.20841,-0.35396 z m 40.45841,0.002 c 3.4375,-0.19527 9.0625,-0.19527 12.5,0 3.4375,0.19527 0.625,0.35504 -6.25,0.35504 -6.875,0 -9.6875,-0.15977 -6.25,-0.35504 z M 576.07895,498.75 c -0.0434,-2.6125 0.28069,-4.75 0.72025,-4.75 0.43956,0 0.63194,1.6875 0.42752,3.75 -0.57539,5.80545 -1.06087,6.22843 -1.14777,1 z m -434.84989,-1.08634 c -1.08267,-1.83499 -2.75552,-4.64749 -3.71744,-6.25 l -1.74896,-2.91366 2.06888,2.5 c 2.36473,2.85749 6.52968,10 5.83122,10 -0.25586,0 -1.35103,-1.50135 -2.4337,-3.33634 z m 385.43761,1.66967 c -0.36667,-0.36666 -0.65299,-1.37916 -0.63626,-2.25 0.025,-1.3003 0.22011,-1.2571 1.09166,0.24167 1.07678,1.85169 0.76461,3.22835 -0.4554,2.00833 z m 43.47442,-1.96991 c -1.20131,-2.68048 -1.1755,-2.75789 0.40388,-1.21163 0.92794,0.90848 1.50543,2.19702 1.28329,2.86342 -0.22213,0.6664 -0.98136,-0.0769 -1.68717,-1.65179 z M 337.95576,495.75 c 1.18369,-1.7875 2.65011,-4.2625 3.25872,-5.5 0.6086,-1.2375 1.50668,-2.25 1.99573,-2.25 0.96059,0 0.7545,0.38825 -3.5931,6.76896 -1.58558,2.32707 -3.09227,4.23104 -3.3482,4.23104 -0.25592,0 0.50316,-1.4625 1.68685,-3.25 z m 105.07604,2.16052 c -0.0175,-0.87422 1.2057,-2.14614 2.7182,-2.82649 2.29311,-1.03147 2.50839,-1.01661 1.29578,0.0895 -0.79982,0.72956 -2.02301,2.00148 -2.7182,2.82648 -1.11776,1.32649 -1.26765,1.31614 -1.29578,-0.0895 z m 38.63487,0.42281 C 481.3,497.96667 481,497.20167 481,496.63333 c 0,-0.6266 0.46577,-0.56756 1.18333,0.15 0.65084,0.65084 0.95084,1.41584 0.66667,1.7 -0.28417,0.28417 -0.81667,0.21667 -1.18333,-0.15 z M 532,498.28911 c 0,-0.57432 0.7875,-1.66182 1.75,-2.41667 1.61876,-1.26951 1.63998,-1.22245 0.28297,0.62756 -0.80687,1.1 -1.59437,2.1875 -1.75,2.41667 C 532.12734,499.14583 532,498.86343 532,498.28911 Z M 522.5,495 c -1.63041,-0.70061 -1.68751,-0.87242 -0.30902,-0.92971 0.93004,-0.0387 1.9691,0.37971 2.30902,0.92971 0.71066,1.14988 0.67591,1.14988 -2,0 z m 107.5,0 c 0,-0.55 0.47656,-1 1.05902,-1 0.58246,0 0.7809,0.45 0.44098,1 -0.33992,0.55 -0.81648,1 -1.05902,1 C 630.19844,496 630,495.55 630,495 Z m 49.81796,-0.21796 c 0.53328,-0.53328 1.8049,-0.79255 2.82582,-0.57615 1.37482,0.29142 1.12336,0.54288 -0.9696,0.96961 -1.82482,0.37205 -2.48236,0.23268 -1.85622,-0.39346 z M 716,495 c 0,-0.55 0.45,-1 1,-1 0.55,0 1,0.45 1,1 0,0.55 -0.45,1 -1,1 -0.55,0 -1,-0.45 -1,-1 z m -239.25,-0.66228 c 0.6875,-0.27741 1.8125,-0.27741 2.5,0 0.6875,0.27741 0.125,0.50439 -1.25,0.50439 -1.375,0 -1.9375,-0.22698 -1.25,-0.50439 z m 60.0625,-0.0208 c 0.72187,-0.28887 1.58438,-0.25335 1.91667,0.0789 0.33229,0.33229 -0.25834,0.56864 -1.3125,0.52522 -1.16495,-0.048 -1.4019,-0.28494 -0.60417,-0.60416 z m 29,0 c 0.72187,-0.28887 1.58438,-0.25335 1.91667,0.0789 0.33229,0.33229 -0.25834,0.56864 -1.3125,0.52522 -1.16495,-0.048 -1.4019,-0.28494 -0.60417,-0.60416 z m -432.55824,-9.61053 c -1.09653,-1.85847 -2.77907,-4.57769 -3.73898,-6.0427 C 128.55536,477.19865 128.03291,476 128.35426,476 c 0.84274,0 7.84454,11.13453 7.32715,11.65192 -0.23841,0.23841 -1.33063,-1.08709 -2.42715,-2.94556 z M 500.75,483.18963 497,482.87927 v -31.89192 -31.89192 l -6.25,-0.29771 c -2.05695,-0.098 51.75,0.70228 51.75,0.70228 l -0.28383,10.75 -0.28383,10.75 H 559.96617 578 v -18 -18 h -9.90457 c 0.0182,-3.64858 0.22087,-43.56443 0.33974,-43.71852 0.0927,-0.12018 11.84523,-0.2621 26.11671,-0.31535 l 25.94814,-0.0968 0.25776,60.59375 c 0.20405,47.96981 -0.004,60.6805 -1,61.0101 -1.49003,0.49322 -113.5535,1.16789 -119.00776,0.71647 z M 125.80422,472.75 c -0.78418,-1.2375 -2.45538,-4.05 -3.71377,-6.25 -1.97932,-3.46039 -2.01156,-3.66275 -0.239,-1.5 2.33813,2.8528 6.50319,10 5.82754,10 -0.24693,0 -1.09058,-1.0125 -1.87477,-2.25 z m -10.15275,-16.48773 c -1.93013,-3.15576 -3.25471,-5.96826 -2.9435,-6.25 0.31121,-0.28175 0.76179,0.0354 1.0013,0.70481 0.2395,0.6694 1.43719,2.6944 2.66155,4.5 2.2682,3.34503 3.87906,6.78292 3.1782,6.78292 -0.21351,0 -1.96741,-2.58198 -3.89755,-5.73773 z m -11.51288,-18.4621 c -3.85529,-6.15991 -6.787079,-11.55991 -6.515087,-12 0.271992,-0.44009 1.930473,-0.79328 3.685517,-0.78486 2.26031,0.0109 2.77994,0.27552 1.78166,0.90748 -0.77512,0.49069 -2.01262,0.66066 -2.75,0.3777 C 99.603308,426.01753 99,426.18891 99,426.68133 c 0,0.70756 5.79325,10.60135 12.33663,21.06867 0.42977,0.6875 0.56319,1.25 0.29649,1.25 -0.26671,0 -3.63925,-5.03992 -7.49453,-11.19983 z M 232.63585,446 c 1.43251,-2.75301 6.49927,-10 6.99153,-10 0.73922,0 -2.77623,5.68066 -5.42439,8.76535 -1.29121,1.50406 -1.99643,2.05965 -1.56714,1.23465 z m 8.92239,-13.83853 c 1.67425,-2.87858 5.27995,-5.99441 5.77741,-4.99249 0.0904,0.18206 -1.60944,2.13102 -3.77741,4.33102 l -3.94177,4 z M 203,337.1135 V 256.227 l 2.75,-0.3635 c 1.5125,-0.19993 29.4125,-0.24055 62,-0.0903 L 327,256.04646 V 276.02323 296 h -41.63367 -41.63367 l 0.47217,61 0.47216,61 H 223.8385 203 Z m 189,76.96323 c 0,-0.50781 1.02902,-2.19531 2.28672,-3.75 1.25769,-1.5547 4.68943,-6.53923 7.62607,-11.07673 2.93665,-4.5375 5.53418,-8.25 5.7723,-8.25 0.54557,0 0.38014,0.27512 -7.9669,13.25 C 392.97028,414.73913 392,415.97449 392,414.07673 Z M 417.92184,400 c 1.20235,-1.925 2.68403,-4.5125 3.29264,-5.75 0.6086,-1.2375 1.50976,-2.25 2.00257,-2.25 1.09793,0 -1.47991,4.44523 -4.92925,8.5 l -2.55205,3 z m 6.25591,-9.75 c 0.18943,-0.4125 2.30219,-3.7875 4.69503,-7.5 l 4.35061,-6.75 23.63831,0.23065 23.6383,0.23065 -23.2684,0.28782 -23.2684,0.28783 -4.47504,6.98153 c -2.46128,3.83983 -4.7405,6.98152 -5.06494,6.98152 -0.32444,0 -0.4349,-0.3375 -0.24547,-0.75 z m -15.54293,-1.5 c 1.9316,-3.20711 13.81057,-20.36299 14.71379,-21.25 1.33938,-1.31533 -1.62754,3.52749 -6.74167,11.00427 -2.25882,3.30235 -4.74548,7.23985 -5.52592,8.75 -0.78044,1.51015 -1.8195,2.74573 -2.30902,2.74573 -0.48952,0 -0.55125,-0.5625 -0.13718,-1.25 z M 286.4088,375.62294 c -0.29063,-0.75738 -0.38901,-3.56988 -0.21861,-6.25 L 286.5,364.5 l 14.79507,-0.27699 14.79508,-0.27699 -0.29508,-6.72301 L 315.5,350.5 301,350 l -14.5,-0.5 -0.30444,-4.7415 c -0.16745,-2.60783 0.0575,-5.30783 0.5,-6 0.6215,-0.9723 5.35271,-1.13751 20.80444,-0.72647 l 20,0.53203 -20.25,0.21797 L 287,339 v 5 5 l 13.75,0.0153 c 7.5625,0.008 14.33471,0.38621 15.04935,0.83952 0.91235,0.57872 1.21019,2.88243 1,7.73469 L 316.5,364.5 301.75,364.77673 287,365.05347 v 5.45212 5.45213 l 19.75,0.29353 19.75,0.29353 -19.78138,0.22761 c -16.03193,0.18447 -19.88155,-0.0334 -20.30982,-1.14945 z M 496.57128,370.75 c -0.3335,-3.4375 -0.76742,-9.175 -0.96426,-12.75 l -0.35789,-6.5 0.62543,6.5 0.62544,6.5 13.41228,0.70529 c 7.37676,0.3879 13.90176,0.89308 14.5,1.12262 0.65365,0.2508 0.94944,2.46352 0.74121,5.54472 L 524.80697,377 h -13.81466 -13.81467 z m -70.90314,-7.76535 c 1.92194,-3.25358 6.98537,-9.46253 5.69601,-6.98465 -1.43251,2.75301 -6.49927,10 -6.99153,10 -0.26713,0 0.31585,-1.35691 1.29552,-3.01535 z M 432.53717,353 c 1.18891,-2.07895 18.69468,-28.39395 22.95076,-34.5 11.37168,-16.31459 14.36316,-21.01093 13.69508,-21.5 C 468.80735,296.725 458.825,296.725 447,297 l -21.5,0.5 -3.75718,5.5 c -2.06644,3.025 -10.15124,15.0625 -17.96621,26.75 C 395.96164,341.4375 388,351 388,351 V 322.26768 L 398.06501,306.88384 411.83147,286 l 3.70145,-5.80568 H 456.51646 506.75 516 V 296 h 25.44098 c 18.15182,0 25.64542,0.33078 26.15451,1.15451 0.40543,0.65599 0.27774,0.88517 -0.29571,0.53076 -0.55509,-0.34306 -19.09453,-0.67616 -41.19877,-0.74022 -29.39008,-0.0852 -40.56873,0.19824 -41.60072,1.05471 -1.35806,1.12709 -11.28586,16.45051 -16.53603,25.52314 -2.67924,4.62989 -5.03029,7.50666 -3.09971,3.79284 0.6245,-1.20134 1.13545,-2.4594 1.13545,-2.79569 0,-0.33629 -3.02562,-0.47837 -6.72361,-0.31574 l -6.7236,0.29569 -9.56166,14.20193 C 434.5784,351.19737 429.94018,357.54114 432.53717,353 Z M 497.75,350.29427 c 1.2375,-0.23836 3.2625,-0.23836 4.5,0 1.2375,0.23835 0.225,0.43337 -2.25,0.43337 -2.475,0 -3.4875,-0.19502 -2.25,-0.43337 z m 24.5,0.0341 C 524.81608,349.898 525,349.5372 525,344.93358 V 340 h -33.5 c -19.33589,0 -33.5,-0.38285 -33.5,-0.9055 0,-1.57951 4.33368,-9.0945 5.24454,-9.0945 0.93701,0 0.47942,0.97927 -2.40851,5.15437 -1.00981,1.4599 -1.83603,2.93366 -1.83603,3.27502 0,0.34136 14.9625,0.58581 33.25,0.54324 l 33.25,-0.0774 v 5.80239 c 0,5.74828 -0.028,5.80375 -3,5.94714 -2.85043,0.13753 -2.8629,0.12176 -0.25,-0.31642 z M 344.19495,300.5 c 0.0204,-1.65 0.2445,-2.20394 0.49804,-1.23097 0.25354,0.97297 0.23687,2.32297 -0.0371,3 -0.27393,0.67703 -0.48137,-0.11903 -0.46099,-1.76903 z"
         id="path10"
         sodipodi:nodetypes="ssssssssssscsscsssscsssssssssssssscssscssssssssssscssssssscccccsssssssscssscccccssssscccccccccccccssssssssssssscsssscccssssscccccccccsssssssscsssccccssssccssssccccsssccssscsscsssssssssssscsssssssssssssssssssssssssssssssssssssssssssccssccccccssccccsscccccssssssscccsssscssssssssssssssssscsssssssssssssssssssccsccsssssssscssccccccsssssssssscsssssssssssssssssssssssssssssssssssssssssssssssssssssssssssssssssssssssccccsccccccccsscssscssssssssssssssssssssssssssscsccscccccccccccsssssssssscssscccccssssssssssscccccccsssccccccsscccccccsssscccssscccssssssssscsscccccccccssssssssscsssssssscsssssscsssssssss" />
    </g>
  </g>
</svg>
