<?xml version="1.0" encoding="UTF-8" standalone="no"?>
<!-- Created with Inkscape (http://www.inkscape.org/) -->

<svg
   version="1.1"
   id="svg1"
   width="1024"
   height="1024"
   viewBox="0 0 1024 1024"
   sodipodi:docname="reaper.svg"
   inkscape:export-filename="reaper.png"
   inkscape:export-xdpi="100"
   inkscape:export-ydpi="100"
   inkscape:version="1.4.2 (ebf0e940, 2025-05-08)"
   xmlns:inkscape="http://www.inkscape.org/namespaces/inkscape"
   xmlns:sodipodi="http://sodipodi.sourceforge.net/DTD/sodipodi-0.dtd"
   xmlns="http://www.w3.org/2000/svg"
   xmlns:svg="http://www.w3.org/2000/svg">
  <defs
     id="defs1" />
  <sodipodi:namedview
     id="namedview1"
     pagecolor="#000000"
     bordercolor="#000000"
     borderopacity="0.25"
     inkscape:showpageshadow="2"
     inkscape:pageopacity="0.0"
     inkscape:pagecheckerboard="0"
     inkscape:deskcolor="#d1d1d1"
     inkscape:zoom="0.59811509"
     inkscape:cx="471.48116"
     inkscape:cy="511.60722"
     inkscape:window-width="1472"
     inkscape:window-height="891"
     inkscape:window-x="0"
     inkscape:window-y="65"
     inkscape:window-maximized="0"
     inkscape:current-layer="g1" />
  <g
     inkscape:groupmode="layer"
     inkscape:label="Image"
     id="g1">
    <path
       id="path2"
       style="fill:#fcbe00;fill-opacity:1"
       d="M 306.42969 468.86523 C 305.48384 468.21296 284.66435 476.95387 269.99414 484.16211 L 261.73438 488.21875 L 267.33594 491.5918 C 289.11572 504.7069 319.18542 532.73294 341.26758 560.5 C 382.30382 612.10075 412.74836 681.48701 424.31641 749.77344 C 425.65683 757.68599 426.83576 765.58628 426.9375 767.33008 C 426.96929 767.87501 427.01539 768.15207 427.07031 768.18555 C 427.071 768.18589 427.07548 768.18723 427.07617 768.1875 L 427.07812 768.1875 L 427.08008 768.1875 L 427.08203 768.18945 L 427.08398 768.18945 L 427.08594 768.1875 L 427.08789 768.1875 L 427.08984 768.1875 C 427.20807 768.1312 427.3615 767.03722 427.49414 765.11719 C 428.02678 757.40681 425.10826 729.59126 421.66992 709.61719 C 411.02982 647.80646 388.88157 593.27126 347.65234 527.36133 C 333.21682 504.28439 309.98516 471.31715 306.42969 468.86523 z " />
    <path
       id="path7"
       style="fill:#fcbe00;fill-opacity:1"
       d="M 766.51758 468.50195 L 762.59375 473.00195 C 751.09747 486.18315 728.01688 521.20395 709.44922 553.64062 C 670.20106 622.205 648.91887 691.07004 645.36523 761 C 644.82481 771.63474 644.79282 771.75273 649.38281 746 C 663.44625 667.09532 701.04732 590.13133 750.69727 538.625 C 769.33746 519.28787 797.15925 495.86814 808.08203 490.32031 L 811.91211 488.375 L 800.08203 482.81445 C 793.57579 479.75632 783.36221 475.28564 777.38477 472.87891 L 766.51758 468.50195 z " />
    <path
       id="path6"
       style="fill:#fcbe00;fill-opacity:1"
       d="M 612.32227 290.16211 L 612.32227 290.16602 L 604.78711 295.3457 C 600.64324 298.19455 593.09176 303.14588 588.00586 306.34961 L 578.75977 312.17578 L 573.62695 309.01758 C 570.80411 307.28066 568.15331 306.22844 567.73633 306.67969 C 567.31934 307.13095 564.64176 317.4 561.78711 329.5 C 549.75306 380.50881 539.58528 418.87938 536.75781 423.95117 C 536.21253 424.92926 534.9332 422.16033 532.83203 415.45117 C 529.43265 404.59672 517.94961 359.66709 512.26953 335 C 507.87434 315.91285 504.82374 305.99074 503.36328 306.02734 C 502.75236 306.04264 500.4847 307.39264 498.32422 309.02734 C 496.16374 310.66204 494.01033 312 493.53906 312 C 482.4157 304.30798 460.18164 288.32031 460.18164 288.32031 L 439.81055 295.39258 C 440.33209 297.06049 444.69579 300.5697 464.4707 315.5 C 475.04035 323.48022 484.09779 330.79616 484.59961 331.75586 C 485.10143 332.71556 488.4729 345.425 492.08984 360 C 503.46979 405.85724 510.63214 426.34078 527.50586 461.26758 L 536.08984 479.03516 L 538.91992 473.85938 C 559.10468 436.94867 572.47537 398.71156 586.22461 338.56836 C 587.09604 334.75648 588.35888 330.97162 589.03125 330.15625 C 589.70362 329.34087 598.80391 322.29089 609.25391 314.49023 C 619.70391 306.68957 629.34132 299.11675 630.67188 297.66016 L 633.0918 295.01172 L 633.0918 295.00977 L 633.08594 295.00781 L 612.32227 290.16211 z " />
    <path
       id="path8"
       style="fill:#997300;fill-opacity:1;stroke:none"
       d="M 612.32227 290.16211 L 633.08594 295.00781 L 633.0918 295.00977 L 629.92188 284.75586 C 628.1785 279.11537 625.71824 270.12974 624.45508 264.78711 C 623.19191 259.44449 621.9214 254.83546 621.63086 254.54492 C 620.70558 253.61964 614.66109 274.19596 613.46875 282.33203 L 612.32227 290.16211 z " />
    <path
       id="path5"
       style="fill:#997300;fill-opacity:1;stroke:none"
       d="m 439.81055,295.39258 20.37109,-7.07227 c -2.72135,-8.83756 -6.13486,-28.24528 -9.29297,-32.32031 -0.42361,0 -1.58112,3.4875 -2.57226,7.75 -0.99114,4.2625 -3.32222,12.80697 -5.18164,18.98828 -1.85943,6.1813 -3.38086,11.71626 -3.38086,12.29883 0,0.11062 0.0166,0.22748 0.0566,0.35547 z"
       sodipodi:nodetypes="cccssscc" />
    <path
       id="path4"
       style="fill:#fcbe00;fill-opacity:1"
       d="M 460.10938 248.31055 C 459.9651 248.45483 462.74986 252.49607 466.29688 257.29297 C 474.07457 267.81138 484.73195 276.59289 501.43945 286.25 L 513.11719 293.00195 L 516.82227 307.75 C 521.3657 325.83908 524.25862 334.54554 530.32031 348.38672 C 532.89675 354.26973 535.51037 358.92874 536.12891 358.74023 C 537.74217 358.24857 545.95202 341.39764 549.0293 332.26172 C 552.56759 321.75715 557.73362 301.19346 557.76172 297.5 C 557.77428 295.85 558.1135 294.02355 558.51758 293.44141 C 558.92166 292.85928 563.14013 290.29773 567.89062 287.74805 C 580.03395 281.23054 588.04039 275.59118 596.51172 267.58789 C 603.3891 261.09049 613.25782 249.17189 612.43945 248.35352 C 612.23555 248.14962 607.61166 249.28761 602.16211 250.88281 C 596.71255 252.47802 585.50391 255.61122 577.25391 257.8457 C 569.00391 260.08017 556.56815 263.73015 549.61914 265.95508 C 542.67013 268.18001 536.40554 270 535.69922 270 C 534.51509 270 519.23287 265.57409 476.8125 252.94336 C 467.77032 250.25104 460.25365 248.16627 460.10938 248.31055 z " />
    <path
       id="path3"
       style="fill:#fcbe00;fill-opacity:1"
       d="M 535.74023 75.021484 L 491.49609 106.44922 C 467.16212 123.73425 445.77337 139.14098 443.96484 140.6875 C 440.25602 143.85899 435.16515 156.44434 404.80273 237.51172 C 388.1404 281.99999 378.98704 304.62665 372.19922 318.10547 C 359.26959 343.78029 329.19167 384.19509 302.80078 411.35547 C 292.70762 421.74292 292.34027 422.27383 294.25391 423.65234 C 342.65804 458.5206 390.03304 497.13769 414.82227 521.92969 C 430.48326 537.59243 439.33812 548.13963 448.46094 562 C 472.15381 597.99676 487.56718 648.02895 495.75 715.5 C 496.88396 724.85 498.19035 735.2 498.6543 738.5 L 499.49805 744.5 L 499.61523 738.5 C 499.83404 727.36646 497.73217 688.59875 496.17188 675 C 492.03399 638.93595 484.49191 608.6972 473.1875 582.84961 C 463.93562 561.69516 455.45869 548.40959 426.81641 510.16797 C 380.96133 448.94477 370.75391 431.05204 370.75391 411.90625 C 370.75391 396.89202 372.53505 390.81117 395.47656 327.5 C 403.4485 305.5 413.18351 277.76599 417.11133 265.86914 L 424.25391 244.23828 L 450.23438 225.86914 C 464.52361 215.76599 483.42361 202.53996 492.23438 196.47656 C 501.04514 190.41316 514.46347 181.03467 522.05469 175.63672 L 535.85742 165.82227 L 543.55469 171.11328 C 547.78847 174.02373 561.15391 183.37435 573.25391 191.89062 C 594.85862 207.09658 600.96343 211.36367 627.48242 229.79492 C 634.75809 234.85165 642.43801 240.21788 644.54883 241.7207 C 648.11039 244.25639 648.73174 245.49866 653.19336 258.97656 C 655.83761 266.96444 664.05665 290.15 671.45898 310.5 C 698.07896 383.68196 699.83367 389.04116 701.93945 403.60547 C 703.00963 411.0072 702.95092 413.24878 701.5 420.26562 C 697.87797 437.78212 683.94309 459.99481 641.75391 515.5 C 613.87735 552.17513 603.80076 569.30889 593.23828 598 C 588.49126 610.89447 582.62955 632.92515 580.33398 646.5 C 576.96104 666.44591 574.62968 694.7239 574.23242 720.5 L 573.83203 746.5 L 575.71484 729.5 C 588.00989 618.54887 611.59178 562.77775 668.10352 511.00391 C 691.86166 489.23763 747.1812 445.0735 771.95312 428.0957 L 779.6543 422.81836 L 765.62891 407.25586 C 745.72654 385.17185 730.68891 366.29021 718.04102 347.5 C 699.8882 320.53144 693.41166 306.73726 673.90625 253.5 C 647.16279 180.50749 632.34311 142.95485 629.50977 141 C 622.40881 136.10073 548.09593 83.897711 542.49609 79.875 L 535.74023 75.021484 z M 559.38672 557.30078 C 559.23317 557.14723 557.22947 571.97814 554.93359 590.25977 C 552.6377 608.5414 548.76122 638.8 546.31836 657.5 C 543.8755 676.2 540.72325 702.95725 539.31445 716.96094 C 537.90565 730.96462 536.70222 742.88962 536.64062 743.46094 C 536.57905 744.03225 535.49543 735.275 534.23242 724 C 527.83476 666.88718 524.4169 637.78718 522.13477 621 C 520.75154 610.825 518.32314 592.825 516.73828 581 L 513.85742 559.5 L 514.34961 609.5 C 515.0025 675.65724 516.88495 717.57918 521.82227 776 C 528.3691 853.46536 533.81684 919.78927 534.88086 934.9707 C 535.55434 944.57975 536.2387 952.00475 536.40039 951.4707 C 536.56208 950.93665 538.0706 932.725 539.75391 911 C 542.97757 869.39495 544.14959 855.1849 545.77539 838 C 546.74835 827.71567 547.70061 817.06999 549.71094 794 C 552.28513 764.45944 555.73747 711.94776 556.71289 687.5 C 557.80022 660.24762 559.90384 557.8179 559.38672 557.30078 z " />
  </g>
</svg>
